<?xml version="1.0" encoding="UTF-8"?> <svg xmlns="http://www.w3.org/2000/svg" viewBox="0 0 484.48 424.98"><defs><style>.cls-1{fill:#fff;stroke:#231f20;stroke-width:3px;}.cls-2{fill:#288cc8;}.cls-3{fill:#203d74;}</style></defs><title>Asset 3</title><g id="Layer_2" data-name="Layer 2"><g id="Layer_1-2" data-name="Layer 1"><rect class="cls-1" x="1.5" y="1.5" width="481.48" height="421.98"></rect><path class="cls-2" d="M102.83,264.43c-.12,6.62-.6,12.29-4.64,17.95-4.46,6.21-11.15,8.92-18.74,8.92-14.28,0-24.22-9.7-24.22-24,0-14.76,10-24.46,24.64-24.46,9.34,0,16.58,4.21,20.49,12.71l-11.21,4.7c-1.62-4.34-5.06-7.23-9.82-7.23-7.77,0-11.81,7.41-11.81,14.34s4.22,14.22,12,14.22c5.12,0,9-2.65,9.52-7.89H79.39v-9.28Z"></path><polygon class="cls-2" points="118.04 279.79 132.2 279.79 132.2 289.8 106.23 289.8 106.23 244.36 118.04 244.36 118.04 279.79"></polygon><path class="cls-2" d="M181.43,266.23c0,14.71-10.54,25.07-25.12,25.07s-25.13-10.36-25.13-25.07c0-13.74,12-23.37,25.13-23.37S181.43,252.49,181.43,266.23Zm-38,.06c0,7.84,5.79,13.56,12.84,13.56s12.83-5.72,12.83-13.56c0-6.26-5.78-12-12.83-12S143.47,260,143.47,266.29Z"></path><path class="cls-2" d="M184.33,289.79V244.36H201.2c8.08,0,13.5,3.14,13.5,11.81,0,4.1-1.32,7.41-5,9.28v.12c6.51.84,9.28,5.24,9.28,11.57,0,9.52-8.13,12.65-16.45,12.65Zm11.81-27.59h1.33c3.13,0,6.39-.55,6.39-4.4,0-4.16-3.68-4.4-6.87-4.4h-.85Zm0,18.56h1.51c3.49,0,9.4.18,9.4-4.83,0-5.48-5.85-4.94-9.7-4.94h-1.21Z"></path><path class="cls-2" d="M234.11,281.9,231,289.79H218.44l17.47-45.43h12.9l17.11,45.43H253.33l-3-7.89Zm8.25-23.5h-.12l-4.88,14.46h9.82Z"></path><polygon class="cls-2" points="280.51 279.79 294.67 279.79 294.67 289.8 268.7 289.8 268.7 244.36 280.51 244.36 280.51 279.79"></polygon><polygon class="cls-2" points="339.1 244.36 353.75 244.36 335.67 265.87 355.37 289.8 340.07 289.8 324.82 270.09 324.7 270.09 324.7 289.8 312.89 289.8 312.89 244.36 324.7 244.36 324.7 263.1 324.82 263.1 339.1 244.36"></polygon><polygon class="cls-2" points="369.48 254.36 369.48 261.95 382.8 261.95 382.8 271.96 369.48 271.96 369.48 279.79 383.52 279.79 383.52 289.8 357.67 289.8 357.67 244.36 383.52 244.36 383.52 254.36 369.48 254.36"></polygon><polygon class="cls-2" points="384.35 244.36 398.51 244.36 407 256.71 415.5 244.36 429.66 244.36 412.91 267.98 412.91 289.8 401.1 289.8 401.1 267.98 384.35 244.36"></polygon><polygon class="cls-2" points="288.16 191.87 273.2 217.56 278.92 224.62 316.02 224.62 288.16 191.87"></polygon><path class="cls-3" d="M55.23,141.64a82.47,82.47,0,0,1,155.08-39.08l1.25,2.33H179.82l-.47-.53c-.7-.78-1.4-1.53-2.12-2.26a55.9,55.9,0,1,0,15.69,48.34l.2-1.34h26.69l-.19,1.75a82.45,82.45,0,0,1-164.39-9.21Zm3.17,0a79.28,79.28,0,0,0,157.85,10.62H195.81a59.09,59.09,0,1,1-16.34-52.39c.6.61,1.19,1.23,1.76,1.86h25A79.29,79.29,0,0,0,58.4,141.64Zm136.08,10.62v0Z"></path><path class="cls-3" d="M148.61,156.32V128.83h91.06l-8.37,27.49Zm1.89-1.89h79.4l7.22-23.71H150.5Zm-.94-23.71v0Z"></path><path class="cls-3" d="M194.48,150.68A57.52,57.52,0,1,1,178.35,101c.75.75,1.48,1.53,2.18,2.32h28.38A80.9,80.9,0,1,0,218,150.68Z"></path><polygon class="cls-3" points="149.56 129.77 149.56 155.38 230.6 155.38 238.4 129.77 149.56 129.77"></polygon><polygon class="cls-3" points="291.08 57.56 258.35 57.56 210.76 133.52 211.39 145.39 253.84 194.95 268.76 169.34 241.6 137.79 291.08 57.56"></polygon><polygon class="cls-3" points="262.14 224.62 326.81 114.25 393.87 224.62 426.9 224.62 326.09 59.63 229.62 224.62 262.14 224.62"></polygon><path class="cls-3" d="M340.61,173.93a14.24,14.24,0,1,1-14.24-14.25A14.25,14.25,0,0,1,340.61,173.93Z"></path><polygon class="cls-3" points="337.13 205.14 315.61 205.14 321.52 173.93 332.04 173.93 337.13 205.14"></polygon><path class="cls-3" d="M73.88,356.05l-3.81,9.55H54.82l21.26-54.94H91.77L112.6,365.6H97.27l-3.59-9.55Zm10.05-28.41h-.15l-5.94,17.48h12Z"></path><path class="cls-3" d="M115.06,310.66h20.38c15.4,0,28.08,12,28.08,27.47s-12.75,27.47-28.08,27.47H115.06Zm14.37,42.84h3.23c8.57,0,15.91-4.66,15.91-15.37,0-9.84-6.53-15.37-15.77-15.37h-3.37Z"></path><polygon class="cls-3" points="186.79 344.03 200.21 310.66 215.83 310.66 192.22 365.6 181.07 365.6 157.83 310.66 173.45 310.66 186.79 344.03"></polygon><rect class="cls-3" x="217.98" y="310.66" width="14.37" height="54.94"></rect><path class="cls-3" d="M268.94,324.8a15.15,15.15,0,0,0-9.53-3.65c-2.64,0-6.16,1.53-6.16,4.59s3.89,4.45,6.38,5.25l3.67,1.09c7.69,2.26,13.63,6.12,13.63,15,0,5.47-1.32,11.08-5.72,14.79s-10.11,5.18-15.69,5.18a34.32,34.32,0,0,1-19.43-6.27l6.16-11.51c3.59,3.13,7.85,5.68,12.76,5.68,3.37,0,7-1.68,7-5.54s-5.65-5.39-8.73-6.26c-9-2.55-15-4.88-15-15.52,0-11.15,8-18.44,19.07-18.44a38,38,0,0,1,17.3,4.52Z"></path><path class="cls-3" d="M339.54,337.11c0,17.78-12.83,30.31-30.58,30.31s-30.57-12.53-30.57-30.31c0-16.61,14.66-28.27,30.57-28.27S339.54,320.5,339.54,337.11Zm-46.2.07c0,9.47,7,16.4,15.62,16.4s15.62-6.93,15.62-16.4c0-7.58-7-14.5-15.62-14.5S293.34,329.6,293.34,337.18Z"></path><path class="cls-3" d="M389,365.6H371.14l-13.56-21.13h-.15V365.6H343.06V310.66h21.48c10.93,0,19.21,5.17,19.21,16.9,0,7.58-4.25,14.14-12.09,15.52Zm-31.6-30.31h1.4c4.69,0,10-.88,10-6.85s-5.28-6.85-10-6.85h-1.4Z"></path><path class="cls-3" d="M421.26,324.8a15.13,15.13,0,0,0-9.53-3.65c-2.64,0-6.16,1.53-6.16,4.59s3.89,4.45,6.38,5.25l3.67,1.09c7.7,2.26,13.64,6.12,13.64,15,0,5.47-1.32,11.08-5.72,14.79s-10.12,5.18-15.69,5.18a34.27,34.27,0,0,1-19.43-6.27l6.16-11.51c3.59,3.13,7.84,5.68,12.75,5.68,3.38,0,7-1.68,7-5.54s-5.65-5.39-8.73-6.26c-9-2.55-14.95-4.88-14.95-15.52,0-11.15,8-18.44,19.06-18.44a38,38,0,0,1,17.3,4.52Z"></path></g></g></svg> 